<?xml version="1.0" standalone="no"?>
<!DOCTYPE svg PUBLIC "-//W3C//DTD SVG 20010904//EN"
 "http://www.w3.org/TR/2001/REC-SVG-20010904/DTD/svg10.dtd">
<svg version="1.0" xmlns="http://www.w3.org/2000/svg"
 width="300.000000pt" height="300.000000pt" viewBox="0 0 300.000000 300.000000"
 preserveAspectRatio="xMidYMid meet">
<metadata>
Created by potrace 1.11, written by Peter Selinger 2001-2013
</metadata>
<g transform="translate(0.000000,300.000000) scale(0.100000,-0.100000)"
fill="#000000" stroke="none">
<path d="M621 2770 c-31 -23 -41 -63 -41 -159 l0 -88 -122 0 c-68 0 -141 -3
-162 -7 -51 -10 -101 -44 -134 -93 l-27 -38 -3 -836 -2 -837 251 -251 252
-251 1041 0 c1006 0 1042 1 1081 20 52 24 66 37 93 81 l22 36 0 1015 c0 1094
3 1039 -51 1097 -46 49 -99 63 -250 64 -118 1 -139 3 -140 16 0 9 -1 50 -1 92
0 98 -17 135 -69 150 -45 14 -93 -1 -112 -35 -15 -28 -14 -22 -16 -129 l-1
-94 -725 0 -725 0 -1 21 c0 12 -1 57 -3 101 -1 48 -8 89 -16 102 -27 43 -99
55 -139 23z m-241 -2065 c19 -23 8 -25 -14 -4 -11 11 -15 19 -9 19 6 0 16 -7
23 -15z m396 -307 c-2 -55 -5 -63 -22 -63 -10 0 -19 5 -19 10 0 12 35 115 39
115 2 0 3 -28 2 -62z"/>
</g>
</svg>
